#!OML:ASF F:\VICON\USERDATA\INSTALL\rory3\rory3.ASF
:FULLY-SPECIFIED
:DEGREES
806
root 0.9665 15.2584 -5.18904 -4.10442 1.61037 2.55644
lowerback -8.52206 12.6062 6.99241
upperback -4.03862 16.5057 -7.43776
thorax 4.5274 8.35757 -9.10581
lowerneck 5.42959 -9.54917 -14.851
upperneck 50.7956 -5.17024 -14.3921
head 19.4954 -6.28098 -5.28883
rclavicle -8.62725e-014 -6.04305e-014
rhumerus 68.9834 -5.9914 -70.3036
rradius 148.146
rwrist -63.3969
rhand -0.406866 -39.5733
rfingers 7.12502
rthumb 25.2006 -67.9294
lclavicle -8.62725e-014 -6.04305e-014
lhumerus -58.8231 -12.6005 82.1199
lradius 35.1662
lwrist 22.5134
lhand -19.7482 -20.2182
lfingers 7.12502
lthumb 6.58294 9.65951
rfemur -17.5804 -37.5867 20.2957
rtibia 68.0906
rfoot -49.5012 -37.6055
rtoes 9.54292
lfemur -39.256 -22.3245 -2.98589
ltibia 24.1585
lfoot 8.76061 -6.9337
ltoes -13.5086
807
root 0.96769 15.2612 -5.18236 -4.11819 1.6106 2.55583
lowerback -8.61183 12.6436 7.02334
upperback -3.99835 16.5497 -7.42462
thorax 4.63331 8.38318 -9.07176
lowerneck 5.25467 -9.58969 -15.0978
upperneck 50.9321 -5.19526 -14.2775
head 19.68 -6.32721 -5.24501
rclavicle -1.4551e-013 5.56597e-014
rhumerus 68.9919 -6.05301 -70.1774
rradius 148.205
rwrist -63.2898
rhand -0.46766 -39.1421
rfingers 7.12502
rthumb 25.1424 -67.5064
lclavicle -1.4551e-013 5.56597e-014
lhumerus -58.4582 -12.0637 81.2414
lradius 34.0345
lwrist 20.146
lhand -15.2262 -25.4182
lfingers 7.12502
lthumb 10.9465 4.27647
rfemur -17.513 -37.6104 20.2476
rtibia 68.0637
rfoot -48.9263 -38.0883
rtoes 9.0807
lfemur -39.1884 -22.3306 -3.00948
ltibia 24.113
lfoot 8.86311 -6.87321
ltoes -13.3803
808
root 0.966318 15.264 -5.17658 -4.06724 1.60308 2.80429
lowerback -8.73069 12.6478 6.72467
upperback -3.98806 16.5741 -7.47317
thorax 4.64758 8.39221 -8.94018
lowerneck 5.18476 -9.57299 -14.6926
upperneck 50.8556 -5.0567 -14.6164
head 19.583 -6.22971 -5.44292
rclavicle 9.85972e-014 2.70347e-014
rhumerus 69.0386 -6.11166 -70.2072
rradius 148.232
rwrist -63.3383
rhand -0.246462 -38.8796
rfingers 7.12502
rthumb 25.3543 -67.2141
lclavicle 9.85972e-014 2.70347e-014
lhumerus -58.6863 -12.4056 81.8536
lradius 34.8294
lwrist 21.6789
lhand -17.7041 -22.1432
lfingers 7.12502
lthumb 8.55593 7.6634
rfemur -17.5846 -37.6336 19.989
rtibia 68.0567
rfoot -48.1011 -38.7881
rtoes 7.66743
lfemur -39.1865 -22.4014 -3.23457
ltibia 24.0952
lfoot 8.86871 -6.73949
ltoes -13.4305
809
root 0.963923 15.2668 -5.17154 -4.06561 1.55525 2.95406
lowerback -8.78936 12.6379 6.51619
upperback -3.98771 16.5734 -7.48269
thorax 4.62547 8.3878 -8.8338
lowerneck 5.24333 -9.59285 -14.5706
upperneck 50.7456 -5.05608 -14.7995
head 19.4646 -6.22556 -5.52445
rclavicle 3.85642e-014 2.22639e-014
rhumerus 69.1374 -6.12965 -70.2866
rradius 148.241
rwrist -63.4995
rhand -0.0206919 -38.5476
rfingers 7.12502
rthumb 25.5706 -66.8512
lclavicle 3.85642e-014 2.22639e-014
lhumerus -58.507 -11.9722 81.2594
lradius 34.0662
lwrist 20.1416
lhand -15.1068 -25.0412
lfingers 7.12502
lthumb 11.0617 4.64733
rfemur -17.572 -37.5773 19.8308
rtibia 68.0333
rfoot -47.9786 -38.7759
rtoes 6.72018
lfemur -39.1271 -22.4937 -3.3338
ltibia 24.0578
lfoot 8.80476 -6.61119
ltoes -13.621
810
root 0.962279 15.269 -5.16708 -4.20462 1.52612 2.85473
lowerback -8.72405 12.6085 6.5959
upperback -3.95928 16.527 -7.4068
thorax 4.60888 8.36429 -8.81697
lowerneck 5.27488 -9.60132 -14.9891
upperneck 50.7646 -5.13801 -14.5657
head 19.5313 -6.31331 -5.36429
rclavicle 4.49253e-014 9.54166e-015
rhumerus 69.2596 -6.09233 -70.39
rradius 148.214
rwrist -63.6571
rhand 0.178533 -38.3895
rfingers 7.12502
rthumb 25.7614 -66.6656
lclavicle 4.49253e-014 9.54166e-015
lhumerus -58.8256 -12.3566 82.0604
lradius 35.1072
lwrist 22.4677
lhand -19.1605 -20.1023
lfingers 7.12502
lthumb 7.15024 9.75694
rfemur -17.3224 -37.5469 19.8373
rtibia 67.972
rfoot -48.1281 -38.631
rtoes 7.76762
lfemur -38.9316 -22.5334 -3.26628
ltibia 24.0103
lfoot 8.80163 -6.5992
ltoes -13.6994
811
root 0.961421 15.269 -5.16554 -4.30164 1.56523 2.79803
lowerback -8.65281 12.5727 6.64808
upperback -3.92309 16.4769 -7.3574
thorax 4.59734 8.34018 -8.81511
lowerneck 5.27426 -9.50408 -15.0943
upperneck 50.8084 -5.08758 -14.2892
head 19.5878 -6.28163 -5.21191
rclavicle -1.54654e-013 1.74931e-014
rhumerus 69.3701 -6.1161 -70.5207
rradius 148.21
rwrist -63.8463
rhand 0.439835 -38.7246
rfingers 7.12502
rthumb 26.0116 -66.9642
lclavicle -1.54654e-013 1.74931e-014
lhumerus -58.8776 -12.4303 82.3014
lradius 35.3992
lwrist 23.2743
lhand -20.7378 -18.6759
lfingers 7.12502
lthumb 5.62753 11.2294
rfemur -17.1327 -37.5811 19.8073
rtibia 67.9246
rfoot -48.2257 -38.5102
rtoes 7.80426
lfemur -38.8424 -22.5378 -3.27216
ltibia 24.0218
lfoot 8.84839 -6.64316
ltoes -13.6695
812
root 0.962589 15.2694 -5.16274 -4.30037 1.52887 2.83478
lowerback -8.6901 12.6447 6.66551
upperback -3.9171 16.5729 -7.38926
thorax 4.65926 8.3908 -8.82392
lowerneck 5.05707 -9.65404 -15.4569
upperneck 50.9956 -5.28546 -14.1257
head 19.8311 -6.41894 -5.16418
rclavicle 1.24837e-013 -3.02153e-014
rhumerus 69.4498 -6.30131 -70.5582
rradius 148.188
rwrist -63.9742
rhand 0.482869 -39.0526
rfingers 7.12502
rthumb 26.0528 -67.2861
lclavicle 1.24837e-013 -3.02153e-014
lhumerus -58.5699 -12.2846 82.0072
lradius 34.8092
lwrist 22.2943
lhand -19.4023 -21.0322
lfingers 7.12502
lthumb 6.91678 8.83483
rfemur -17.1018 -37.546 19.7535
rtibia 67.8938
rfoot -48.4454 -38.3404
rtoes 8.06817
lfemur -38.8507 -22.5278 -3.31466
ltibia 24.085
lfoot 8.80582 -6.63076
ltoes -13.8387
813
root 0.964926 15.271 -5.15722 -4.33511 1.39065 2.77804
lowerback -8.72611 12.7633 6.81855
upperback -3.91217 16.7199 -7.39975
thorax 4.7612 8.46897 -8.86494
lowerneck 4.96673 -9.7417 -15.4536
upperneck 51.1037 -5.38754 -14.1258
head 19.9307 -6.46283 -5.20724
rclavicle -1.60618e-013 -1.27222e-014
rhumerus 69.5145 -6.45917 -70.5398
rradius 148.164
rwrist -64.0206
rhand 0.439546 -39.2223
rfingers 7.12502
rthumb 26.0113 -67.4619
lclavicle -1.60618e-013 -1.27222e-014
lhumerus -57.9911 -11.6769 81.0082
lradius 33.4104
lwrist 19.6296
lhand -14.8213 -26.2426
lfingers 7.12502
lthumb 11.3371 3.43092
rfemur -17.0505 -37.4303 19.804
rtibia 67.8551
rfoot -48.2987 -38.5056
rtoes 7.87996
lfemur -38.7939 -22.5076 -3.2356
ltibia 24.1619
lfoot 8.71662 -6.55316
ltoes -14.0425
814
root 0.966359 15.2731 -5.15349 -4.38346 1.28252 2.71028
lowerback -8.69156 12.8217 6.9533
upperback -3.91799 16.7892 -7.38807
thorax 4.78498 8.50571 -8.91012
lowerneck 4.98837 -9.75181 -15.2778
upperneck 51.0607 -5.37766 -14.2525
head 19.8634 -6.43905 -5.28189
rclavicle -9.50191e-014 6.04305e-014
rhumerus 69.4558 -6.55314 -70.5747
rradius 148.233
rwrist -64.1305
rhand 0.613303 -39.4642
rfingers 7.12502
rthumb 26.1777 -67.6793
lclavicle -9.50191e-014 6.04305e-014
lhumerus -58.1875 -12.195 81.8495
lradius 34.3621
lwrist 22.0475
lhand -18.8793 -21.9478
lfingers 7.12502
lthumb 7.42165 7.90205
rfemur -16.9815 -37.3526 19.8498
rtibia 67.8254
rfoot -47.9593 -38.6189
rtoes 7.31068
lfemur -38.7466 -22.4945 -3.15559
ltibia 24.2544
lfoot 8.69754 -6.41014
ltoes -13.8857
815
root 0.96681 15.2746 -5.15204 -4.38425 1.26612 2.74392
lowerback -8.6331 12.869 6.97027
upperback -4.01229 16.855 -7.45626
thorax 4.69282 8.53548 -8.99727
lowerneck 5.47065 -9.66957 -14.6702
upperneck 50.8818 -5.32574 -14.4997
head 19.5098 -6.32502 -5.39823
rclavicle -1.86062e-013 -3.97569e-014
rhumerus 69.2266 -6.75216 -70.6412
rradius 148.313
rwrist -64.2607
rhand 0.688126 -39.492
rfingers 7.12502
rthumb 26.2493 -67.6964
lclavicle -1.86062e-013 -3.97569e-014
lhumerus -58.3717 -12.5393 82.1041
lradius 34.7201
lwrist 22.7107
lhand -21.0095 -19.3398
lfingers 7.12502
lthumb 5.3652 10.5723
rfemur -16.9598 -37.3382 19.7954
rtibia 67.8299
rfoot -48.0993 -38.3484
rtoes 7.63019
lfemur -38.7569 -22.4813 -3.20754
ltibia 24.3219
lfoot 8.67723 -6.39103
ltoes -13.8328
816
root 0.96695 15.2731 -5.15247 -4.39698 1.25982 2.78858
lowerback -8.6127 12.9018 6.9684
upperback -4.02453 16.903 -7.49975
thorax 4.69258 8.56067 -9.0352
lowerneck 5.31309 -9.86452 -15.0915
upperneck 50.9834 -5.62292 -14.3495
head 19.6747 -6.51658 -5.3403
rclavicle -3.49861e-014 -7.31528e-014
rhumerus 69.3241 -6.88773 -70.6302
rradius 148.206
rwrist -64.311
rhand 0.578348 -39.2439
rfingers 7.12502
rthumb 26.1442 -67.4639
lclavicle -3.49861e-014 -7.31528e-014
lhumerus -58.416 -12.7487 82.2314
lradius 34.8724
lwrist 22.5096
lhand -21.773 -18.9854
lfingers 7.12502
lthumb 4.62797 10.944
rfemur -16.9464 -37.2864 19.7419
rtibia 67.8616
rfoot -48.4345 -38.0401
rtoes 8.16317
lfemur -38.7499 -22.4422 -3.28258
ltibia 24.3545
lfoot 8.63209 -6.49991
ltoes -14.0224
817
root 0.968168 15.2695 -5.15146 -4.4063 1.29782 2.88178
lowerback -8.70143 12.8554 6.86109
upperback -3.93071 16.846 -7.46942
thorax 4.78934 8.53509 -8.9337
lowerneck 5.10214 -9.92618 -15.3783
upperneck 50.9879 -5.67797 -14.2912
head 19.7752 -6.5877 -5.30205
rclavicle 4.29375e-014 -7.4743e-014
rhumerus 69.6512 -6.79403 -70.6441
rradius 148.051
rwrist -64.3337
rhand 0.635214 -39.1146
rfingers 7.12502
rthumb 26.1987 -67.3265
lclavicle 4.29375e-014 -7.4743e-014
lhumerus -58.2528 -12.6857 82.3758
lradius 34.8498
lwrist 22.3474
lhand -22.6019 -19.4396
lfingers 7.12502
lthumb 3.82752 10.5058
rfemur -16.9258 -37.3096 19.5965
rtibia 67.8984
rfoot -48.6006 -37.8747
rtoes 8.32216
lfemur -38.7906 -22.4067 -3.42374
ltibia 24.437
lfoot 8.60236 -6.56258
ltoes -14.0368
818
root 0.968796 15.2679 -5.15199 -4.38489 1.32083 2.80463
lowerback -8.74948 12.8214 6.92653
upperback -3.93218 16.7896 -7.42327
thorax 4.80483 8.5062 -8.92231
lowerneck 5.08899 -9.94339 -15.406
upperneck 50.9261 -5.67069 -14.3897
head 19.7343 -6.60038 -5.33706
rclavicle -1.36764e-013 4.77083e-015
rhumerus 69.6461 -6.7227 -70.7617
rradius 148.148
rwrist -64.4285
rhand 0.704624 -39.2289
rfingers 7.12502
rthumb 26.2651 -67.431
lclavicle -1.36764e-013 4.77083e-015
lhumerus -58.111 -12.5824 82.3931
lradius 34.6711
lwrist 22.2569
lhand -22.7382 -18.9701
lfingers 7.12502
lthumb 3.69588 10.9776
rfemur -16.9826 -37.3323 19.7137
rtibia 67.906
rfoot -48.727 -38.0719
rtoes 8.40993
lfemur -38.8893 -22.3698 -3.33997
ltibia 24.5318
lfoot 8.59107 -6.55299
ltoes -13.9931
819
root 0.964262 15.2609 -5.17091 -4.35008 1.25117 2.08708
lowerback -8.53401 12.8267 7.65043
upperback -4.04081 16.7406 -7.25383
thorax 4.70671 8.48147 -9.17913
lowerneck 5.00961 -9.95387 -15.5282
upperneck 50.9666 -5.68653 -14.3199
head 19.8051 -6.62404 -5.3043
rclavicle -2.0117e-013 3.65764e-014
rhumerus 69.613 -6.71737 -70.829
rradius 148.277
rwrist -64.5339
rhand 0.477063 -39.3117
rfingers 7.12502
rthumb 26.0472 -67.546
lclavicle -2.0117e-013 3.65764e-014
lhumerus -58.0964 -12.6122 82.4418
lradius 34.7235
lwrist 22.2462
lhand -22.4445 -17.8786
lfingers 7.12502
lthumb 3.97951 12.064
rfemur -17.277 -37.0899 20.8619
rtibia 67.8645
rfoot -49.0612 -38.4536
rtoes 8.71009
lfemur -39.0994 -22.0262 -2.54207
ltibia 24.6375
lfoot 8.52412 -6.87409
ltoes -14.1629
820
root 0.964242 15.259 -5.17124 -4.36886 1.23056 2.13906
lowerback -8.53167 12.7966 7.60256
upperback -4.04247 16.7038 -7.25622
thorax 4.68288 8.46179 -9.16818
lowerneck 5.0805 -9.95238 -14.8113
upperneck 50.749 -5.55008 -14.9285
head 19.5076 -6.49955 -5.63448
rclavicle -9.74045e-014 -1.43125e-014
rhumerus 69.6852 -6.63147 -70.8328
rradius 148.287
rwrist -64.5557
rhand 0.133729 -39.5599
rfingers 7.12502
rthumb 25.7185 -67.8422
lclavicle -9.74045e-014 -1.43125e-014
lhumerus -58.0673 -12.4625 82.2085
lradius 34.5185
lwrist 21.3493
lhand -20.7447 -19.2045
lfingers 7.12502
lthumb 5.62084 10.7009
rfemur -17.2491 -37.0462 20.7881
rtibia 67.8792
rfoot -48.9759 -38.3135
rtoes 8.657
lfemur -39.0922 -21.886 -2.67658
ltibia 24.7353
lfoot 8.38601 -7.11406
ltoes -14.6826
